<?xml version="1.0" encoding="utf-8"?>
<!-- Generator: Adobe Illustrator 26.2.1, SVG Export Plug-In . SVG Version: 6.00 Build 0)  -->
<svg version="1.1" id="Layer_1" xmlns="http://www.w3.org/2000/svg" xmlns:xlink="http://www.w3.org/1999/xlink" x="0px" y="0px"
	 viewBox="0 0 19.1 19.5" style="enable-background:new 0 0 19.1 19.5;" xml:space="preserve">
<style type="text/css">
	.st0{fill:#FFFFFF;}
	.st1{fill:#FFFFFF;filter:url(#Adobe_OpacityMaskFilter);}
	.st2{mask:url(#path-1-outside-1_2525_16_00000039115269646152505210000015788337599249270144_);fill:#3D2600;}
</style>
<path class="st0" d="M1.4,18.5L8.1,1h2.7l6.7,17.5h-2.9l-4-10.5c-0.1-0.1-0.1-0.4-0.3-0.8c-0.1-0.4-0.3-0.9-0.5-1.5
	C9.8,5,9.6,4.5,9.5,4.1C9.3,3.6,9.2,3.3,9.2,3.2l0.6,0C9.6,3.5,9.5,3.8,9.4,4.2C9.2,4.7,9.1,5.1,8.9,5.6C8.8,6.1,8.6,6.6,8.5,7
	C8.3,7.4,8.2,7.8,8.1,8l-4,10.4H1.4z M4.4,14.1l1-2.6h7.9l1.2,2.6H4.4z"/>
<defs>
	<filter id="Adobe_OpacityMaskFilter" filterUnits="userSpaceOnUse" x="-0.1" y="0" width="19.2" height="19.5">
		<feColorMatrix  type="matrix" values="1 0 0 0 0  0 1 0 0 0  0 0 1 0 0  0 0 0 1 0"/>
	</filter>
</defs>
<mask maskUnits="userSpaceOnUse" x="-0.1" y="0" width="19.2" height="19.5" id="path-1-outside-1_2525_16_00000039115269646152505210000015788337599249270144_">
	<rect x="-0.3" y="-0.5" class="st1" width="20" height="20"/>
	<path d="M1.4,18.5L8.1,1h2.7l6.7,17.5h-2.9l-4-10.5c-0.1-0.1-0.1-0.4-0.3-0.8c-0.1-0.4-0.3-0.9-0.5-1.5C9.8,5,9.6,4.5,9.5,4.1
		C9.3,3.6,9.2,3.3,9.2,3.2l0.6,0C9.6,3.5,9.5,3.8,9.4,4.2C9.2,4.7,9.1,5.1,8.9,5.6C8.8,6.1,8.6,6.6,8.5,7C8.3,7.4,8.2,7.8,8.1,8
		l-4,10.4H1.4z M4.4,14.1l1-2.6h7.9l1.2,2.6H4.4z"/>
</mask>
<path class="st2" d="M1.4,18.5l-0.9-0.4l-0.5,1.4h1.5V18.5z M8.1,1V0H7.4L7.2,0.6L8.1,1z M10.9,1l0.9-0.4L11.6,0h-0.7V1z M17.6,18.5
	v1h1.5l-0.5-1.4L17.6,18.5z M14.7,18.5l-0.9,0.4l0.2,0.6h0.7V18.5z M10.7,7.9l0.9-0.4l0,0l0,0L10.7,7.9z M10.4,7.1l-1,0.3l0,0l0,0
	L10.4,7.1z M10,5.6l0.9-0.3L10,5.6z M9.5,4.1l-1,0.3l0,0L9.5,4.1z M9.2,3.2l0-1L7.7,2.3l0.5,1.3L9.2,3.2z M9.7,3.2l0.9,0.3l0.5-1.4
	L9.7,2.2L9.7,3.2z M9.4,4.2L8.4,3.9l0,0l0,0L9.4,4.2z M8.9,5.6L8,5.3l0,0l0,0L8.9,5.6z M8.5,7l0.9,0.3l0,0L8.5,7z M8.1,8L9,8.4l0,0
	l0,0L8.1,8z M4.1,18.5v1h0.7L5,18.9L4.1,18.5z M4.4,14.1l-0.9-0.4l-0.5,1.4h1.5V14.1z M5.4,11.5v-1H4.7l-0.2,0.6L5.4,11.5z
	 M13.3,11.5l0.9-0.4L14,10.5h-0.7V11.5z M14.5,14.1v1H16l-0.6-1.4L14.5,14.1z M2.3,18.9L9.1,1.4L7.2,0.6L0.4,18.1L2.3,18.9z M8.1,2
	h2.7V0H8.1V2z M9.9,1.4l6.7,17.5l1.9-0.7L11.8,0.6L9.9,1.4z M17.6,17.5h-2.9v2h2.9V17.5z M15.7,18.1l-4-10.6L9.8,8.3l4,10.5
	L15.7,18.1z M11.6,7.6c0-0.1-0.1-0.3-0.3-0.8L9.5,7.4c0.1,0.4,0.3,0.8,0.3,0.9L11.6,7.6z M11.4,6.8c-0.1-0.5-0.3-1-0.5-1.5L9,5.9
	c0.2,0.5,0.3,1,0.5,1.5L11.4,6.8z M10.9,5.3c-0.2-0.6-0.4-1.1-0.5-1.5L8.5,4.4C8.7,4.9,8.8,5.4,9,5.9L10.9,5.3z M10.4,3.8
	c-0.1-0.5-0.3-0.8-0.3-0.9L8.2,3.6c0,0.1,0.1,0.4,0.3,0.9L10.4,3.8z M9.2,4.2l0.6,0l-0.1-2l-0.6,0L9.2,4.2z M8.8,2.8
	C8.7,3.1,8.6,3.5,8.4,3.9l1.9,0.7c0.1-0.4,0.3-0.8,0.4-1.1L8.8,2.8z M8.4,4C8.3,4.4,8.1,4.8,8,5.3L9.9,6c0.2-0.5,0.3-1,0.5-1.4
	L8.4,4z M7.9,5.3C7.8,5.8,7.7,6.3,7.5,6.7l1.9,0.7c0.2-0.4,0.3-0.9,0.5-1.4L7.9,5.3z M7.5,6.7C7.4,7.1,7.2,7.4,7.1,7.7L9,8.4
	c0.1-0.3,0.2-0.6,0.4-1L7.5,6.7z M7.1,7.7l-4,10.5L5,18.9L9,8.4L7.1,7.7z M4.1,17.5H1.4v2h2.8V17.5z M5.3,14.5l1-2.6l-1.9-0.7
	l-1,2.6L5.3,14.5z M5.4,12.5h7.9v-2H5.4V12.5z M12.4,12l1.2,2.6l1.8-0.8l-1.1-2.6L12.4,12z M14.5,13.1H4.4v2h10.1V13.1z"/>
</svg>
