<svg width="18" height="21" viewBox="0 0 18 21" fill="none" xmlns="http://www.w3.org/2000/svg">
<path d="M14.35 20.775L7.675 11.85L10.5 9.875L17.1 18.725L14.35 20.775ZM9.025 18.25C7.74167 18.25 6.55 18.025 5.45 17.575C4.36667 17.125 3.425 16.5 2.625 15.7C1.84167 14.8833 1.225 13.925 0.775 12.825C0.341667 11.725 0.125 10.5167 0.125 9.2C0.125 7.9 0.341667 6.7 0.775 5.6C1.225 4.5 1.84167 3.54167 2.625 2.725C3.425 1.90833 4.36667 1.275 5.45 0.824999C6.55 0.374999 7.74167 0.149999 9.025 0.149999C10.3083 0.149999 11.4833 0.374999 12.55 0.824999C13.6333 1.275 14.575 1.90833 15.375 2.725C16.175 3.54167 16.7917 4.50833 17.225 5.625C17.675 6.725 17.9 7.91667 17.9 9.2C17.9 10.5 17.675 11.7 17.225 12.8C16.7917 13.9 16.175 14.8583 15.375 15.675C14.575 16.4917 13.6333 17.125 12.55 17.575C11.4833 18.025 10.3083 18.25 9.025 18.25ZM9.025 14.7C9.75833 14.7 10.4333 14.5667 11.05 14.3C11.6667 14.0167 12.2 13.6333 12.65 13.15C13.1167 12.65 13.475 12.0667 13.725 11.4C13.975 10.7333 14.1 10 14.1 9.2C14.1 8.41667 13.975 7.69167 13.725 7.025C13.475 6.35833 13.1167 5.775 12.65 5.275C12.2 4.775 11.6667 4.39167 11.05 4.125C10.4333 3.84167 9.75833 3.7 9.025 3.7C8.29167 3.7 7.60833 3.84167 6.975 4.125C6.35833 4.39167 5.81667 4.775 5.35 5.275C4.9 5.75833 4.55 6.34167 4.3 7.025C4.05 7.69167 3.925 8.425 3.925 9.225C3.925 10.275 4.14167 11.2167 4.575 12.05C5.025 12.8667 5.625 13.5167 6.375 14C7.14167 14.4667 8.025 14.7 9.025 14.7Z" fill="#3D2600"/>
</svg>
