<svg width="13" height="13" viewBox="0 0 13 13" fill="none" xmlns="http://www.w3.org/2000/svg">
<path d="M9.59633 0C8.26026 0 7.05627 0.780305 6.5 1.98762C5.94627 0.780305 4.73974 0 3.40367 0C1.52657 0 0 1.52757 0 3.40589C0 4.5522 0.805197 5.7341 1.41735 6.68724C2.35971 8.15381 3.7034 9.45008 4.78292 10.4922C5.43572 11.1225 5.99961 11.6664 6.31712 12.096C6.3603 12.1545 6.42888 12.1875 6.5 12.1875C6.57112 12.1875 6.6397 12.1519 6.68288 12.096C7.00039 11.669 7.56428 11.1225 8.21708 10.4922C9.2966 9.45008 10.6403 8.15381 11.5826 6.68724C12.1948 5.73664 13 4.5522 13 3.40589C13 1.52757 11.4734 0 9.59633 0ZM11.1966 6.44069C10.2821 7.86151 8.96131 9.13745 7.89957 10.1643C7.34076 10.7031 6.84545 11.1835 6.5 11.5927C6.15455 11.181 5.65924 10.7031 5.10043 10.1643C4.03869 9.13745 2.71532 7.86151 1.80344 6.44069C1.22685 5.54601 0.45721 4.41495 0.45721 3.40589C0.45721 1.7792 1.77804 0.457508 3.40367 0.457508C4.78546 0.457508 5.96659 1.39794 6.27648 2.74251C6.32982 2.97888 6.66764 2.97634 6.72353 2.74251C7.03341 1.39794 8.21454 0.457508 9.59633 0.457508C11.222 0.457508 12.5428 1.78174 12.5428 3.40589C12.5428 4.41495 11.7732 5.54601 11.1966 6.44069Z" fill="black"/>
</svg>
